<?xml version="1.0" encoding="UTF-8"?>
<svg id="Layer_1" xmlns="http://www.w3.org/2000/svg" version="1.1" viewBox="0 0 301.7 260.4">
  <!-- Generator: Adobe Illustrator 29.1.0, SVG Export Plug-In . SVG Version: 2.1.0 Build 142)  -->
  <defs>
    <style>
      .st0 {
        fill: #231f20;
      }
    </style>
  </defs>
  <g id="Layer_11" data-name="Layer_1">
    <path class="st0" d="M292,163.9c-3.8,5.2-8.5,9-15,10.4-13.6,2.9-26-1-37.7-7.4-9-4.9-17.6-10.6-26.5-15.8-6.6-3.8-13.2-7.7-20.1-10.9-9-4.1-17.7-3.4-25,3.9-1.4,1.4-2.4,3.2-3.9,4.4-5.6,4.7-11.9,7.1-19.3,5.9-4.2-.7-8.4-1.8-12.7-2.2-6-.6-12.2,1.5-13.1,8.7-.5,4.1,1.4,7.9,5.6,10.5,1.1.6,2.8,1.1,3,1.9.9,3.1,3.5,3.7,5.7,4.4,3.1,1,5.7,3.6,9.4,2.7,2.1-.5,4.4-.7,6.5-.8,6.4-.3,12.6.3,18.3,3.7.6.4,2,.1,2.7-.3,10.6-7.3,22-12.9,34.8-15,5.9-1,11.9-1.7,17.3,2.2,1.1.8,2.6.9,4,1.1,3.9.6,7.8,1.2,11.7,1.8,9.4,1.5,18.5,4.2,27.1,8.4,7.8,3.9,12.6,11.6,11.3,18.9-1.3,7.1-5.6,12.4-11.8,16.1-7.1,4.2-15,5.8-23.1,6.4-21.2,1.8-38.3-5.6-50.4-23.3-4.6-6.6-2.6-15.3,4.5-19,4.7-2.4,9.9-3.9,15-5.5,3.9-1.2,7.9-2,12.3-3.2-10.4-5.7-41.2,3.5-50.8,14.3,2.9,5.9,5.7,11.6,8.6,17.4.2.5.5.9.9,1.3,4.3,5.2,8.7,10.4,13,15.6,8.2,9.9,16.3,19.8,24.5,29.7,1.4,1.7,3.2,3.3,4.9,4.8.7.6,1.8.7,3.3,1.2-3.6-15.9-12.2-28-22-39.5,2.7,1.4,5.2,3,7.3,5,7,6.7,11.3,15.2,15,23.9,1.3,3.2,2.3,6.7,2.6,10.1.4,3.7-2.8,5.6-6.2,4-1.8-.9-3.5-2.2-4.7-3.7-2.9-3.4-5.4-7.1-8.3-10.6-9.8-11.8-19.8-23.6-29.6-35.4-2.4-2.9-4.3-6.2-6.2-9.4-2.1-3.6-3.9-7.4-6.1-11.3-2.1,1.3-4,2.5-5.8,3.7-10.6,7.3-21.9,12.7-34.8,14.2-12.8,1.5-24.2-1.5-33.1-11.3-3.5-3.9-6.4-8.4-8.7-13.1-2.4-4.8-3.5-10.2-2.6-15.7,2.9-16.9,12.4-28.4,28.6-34.2,6.4-2.3,13.2-3.8,19.6-6.1,5.8-2,10.1-5.9,12.4-11.8.6-1.6,1.5-3,2.4-4.4,2.2-3.5,5.2-5.6,9.4-5.9,5.3-.5,10.2,1.1,15.1,2.8,7.2,2.6,14.4,4.7,22.1,1.6,5-2,9.4-4.7,13.2-8.5,3.2-3.2,6.3-6.7,9.6-9.8,13.2-12.2,23.8-15.4,39.7-7.9,2.6,1.2,5.4,2.3,8.4,3.5,1-6.5.9-12.5-.5-18.5-2-8.2-6.2-11.9-14.2-13.1-8.7-1.2-14.3,3.3-14.8,12,0,.4-.3.9-.5,1.3-.2,0-.5.1-.8.2-.6-1.3-1.7-2.6-1.5-3.8.3-2.4.8-5,2.1-6.9,3.9-5.7,9.8-6.6,16.2-6,2.4.2,4.8.8,7.2,1.3-2.9-3-5.7-6.2-8.8-9-8.5-7.7-18.2-13.2-29.4-15.9-4.3-1-8.7-1.4-13.4-.4,3.9,6.3,7.4,12.4,6.2,19.9-.6-.8-.9-1.7-1.2-2.5-2.1-5.9-4.3-11.7-8.6-16.5-1.5-1.7-3.1-2.9-5.4-1-.8.7-1.9.9-2.9,1.4-.1-.2-.2-.4-.3-.6,1.6-1,3.3-2,5-3-8.3-8.8-29-11.1-39.8-7.3,2.4,1.6,4.9,3,7,4.7,2.6,2.1,5.4,2.4,8.4,1.7,1.6-.4,3.1-1.2,4.8-1.5,1-.2,2.1,0,3.9,0-3.4,3.6-6.4,5.7-10.9,5.7-5.2,0-9-2.6-12.4-6.1-2.8-2.8-3.4-3-6.9-1.5-2.2.9-4.6,1.5-6.9,2.2-.2-.4-.4-.7-.6-1,1.4-1.3,2.7-2.6,4.1-3.9-8.6-2-16.7.4-25.1,2.3,1.9,1.7,3.9,3,5.4,4.6,5.7,6.4,5.2,16.3-1.1,23.7-3.7,4.4-8,8.2-13.2,10.8-1.9.9-2,2-.8,3.4,3.9,4.4,7.4,9.2,11.8,13.1,6.5,5.7,14.4,8.9,23.3,8.2,7.1-.5,13-3.3,15.5-10.6.8-2.3,1.2-4.8,1.4-7.2.2-3.4.2-6.9-.1-10.3-.7-6.7,1.4-11.6,7.2-15.5,6.7-4.4,13.8-6.7,21.4-4.3,10.1,3,16.4,10.3,19.1,20.5,1.3,5.1.8,10-3,14.1-2.2,2.3-4.7,2.1-6.3-.6,3.6-.4,6.3-2.9,6.2-6.8,0-3.2-.9-6.4-2-9.4-4.4-12.5-20.7-22-35.8-9.1-2.7,2.3-3.9,5-3.7,8.8.3,5.4.5,11-.3,16.3-1.3,8.7-6.3,14.9-15.2,17-8.1,1.9-15.8.3-22.9-3.6-8.1-4.5-14.2-11.2-18.9-19.1-1.2-1.9-2.1-2.7-4.3-1.3-1.2.8-2.8,1.1-4.2,1.3-6.9,1.3-13.6.2-19.9-2.6-7.9-3.5-16-3.6-24.3-3.5-3.5,0-6,1.5-8.3,3.9-1.4,1.5-2.4,2.8-1,4.8.3.4.1,1.2.2,2.2-1.1-.8-1.8-1.3-2.8-2-2,6.3-1.8,12,2.2,17.2,4.8,6.4,11.8,9.2,19.1,11.5,3.6,1.1,7.3,2.1,10.7,3.8,10.7,5.2,13.3,20.7,5.1,29.3-7.1,7.4-21.4,8.6-27.3-1.3-.8-1.3-2.1-2.4-3.3-3.4-.6-.5-1.7-.5-2.8-.8.2.9.2,1.1.3,1.2.2.3.3.6.5.9,4.7,6.6,6.3,14,4.8,22-2,10.5-12.1,17.6-22.4,15.4-4.4-.9-8.5-2.8-12.8-4.2.5.8,1.6,1.4,2.5,2.2,4.6,4,9.2,8.4,15.2,9.7,10.5,2.2,21.2,2.4,31.5-1.5,2.6-1,5.1-2.9,7-4.9,2.9-3.1,2.1-6.7-1.4-9.2-1.1-.8-2.3-1.4-3.4-2,1.4-.2,2.8,0,4,.4,6.2,2.1,7.8,8.4,3.2,13.1-1,1-2.1,1.9-3.3,2.6-9.6,5.2-19.9,7-30.6,5.9-7.1-.8-13.6-3.3-19.3-7.8-6-4.8-11.2-10.4-15.6-16.7-5.1-7.2-8-15.1-6-23.8,1-4.4.6-8.7,1-13,.2-2.3,1-4.6,1.7-6.8.9-2.5,1.9-4.9,3-7.3.8-1.8,1.8-3.6,2.8-5.4.2,0,.5.2.7.3,0,.5.1,1,0,1.5-1.3,4.6-2.5,9.3-4,13.9-.9,2.6-1.7,5-1.1,7.5,2.2-2.3,4.1-4.8,6.6-6.6,2.4-1.8,5.4-2.8,8.3-4.3-.5-1.1-.9-2-1.5-2.9-8.5-13.2-2.7-28.3,5-36.1,4-4,8.6-7,13.8-9.1,3.2-1.3,5-3.3,6.6-6.3,4.9-9.3,12.5-15.8,22.2-19.8,8.3-3.5,17-4.3,25.6-2.1,1.2-1.6,2.1-3.3,3.4-4.6,4.9-5.1,11-7.1,18-6.2,3.8.5,7.5,1.5,10.5-2.3.7-.9,2.3-1.3,3.5-1.6,6.9-1.7,13.9-2.2,20.8.2.6.2,1.4.2,2,.1,4-.9,7.9-2.3,12-2.7,13.5-1.3,26.1,1.1,36.6,10.6,1.6,1.4,2.8,1.9,4.8.8,1-.6,2.4-.6,3.6-.6,18,.8,32.4,9.1,44.3,22,4.3,4.7,8.3,9.4,13.5,13.3,13.1,9.9,20.8,23.7,24.8,39.7,1.1,4.3.9,8.7,3,13,3.9,7.9,6.2,16.5,5.4,25.5-.3,3.7-1.9,7.4-2.9,11.1-.3,1.1-1,2.1-1.1,3.1-.5,6.2-.3,12.5-1.3,18.6-1.5,10-11.8,16.4-21.5,13.6-1.5-.4-3.9-2.6-3.8-2.8,1.1-2.1,2.8-.3,4.3-.2.2,0,.3.1.5.2,3.2,1.3,6.4.8,9.4-.7,6.5-3.3,9.8-10.1,9-19.7-1,1.4-1.5,2.2-2.1,3h0ZM245.3,82.7c-7.1-1.9-13.9.6-19.6,4.9-4.8,3.6-9.1,7.9-13.4,12.2-5.8,5.8-11.9,10.9-20,13.1-8.6,2.4-16.5,0-24.4-2.9-2.9-1.1-6-2-9.1-2.2-4.9-.3-8.6,2.1-10.6,6.7-2.1,4.7-4.3,9.4-8.8,12.2-2.9,1.9-6.1,3.5-9.4,4.6-6.3,2.2-12.8,3.7-19.1,6-13.8,5.2-23.6,19.4-23.5,33.1,0,8.7,3.1,15.9,9.3,22.2,9.1,9.2,23.6,6.9,30.6-.4,3.4-3.5,7-6.8,10-9.7-2.4-1.3-5.4-3-8.4-4.6-1.5-.9-3-1.8-4.6-2.6-4.7-2.4-8.1-6-9-11.3-1.1-6.7,3.6-12.8,10.9-14.5,4.5-1,8.9-.5,13.3.7,4.5,1.2,9.1,2.5,13.7.4,2.4-1.1,4.8-2.5,7-4.1,2.6-1.9,4.9-4,7.2-6.1,7.2-6.5,15.6-7.1,24.2-3.8,6.5,2.5,12.7,6,18.8,9.4,6.1,3.4,12.1,7.2,18.1,10.9,1.4.8,2.8,1.4,4.2,2.2,2.8-2.4,5.5-4.5,8.1-6.9,5.3-5,6.4-13.9,2.5-20.1-4.5-7.3-11.3-10.4-19.4-11.5-12.8-1.7-24.8,1.5-36.4,6.2-1.9.8-3.9,1.4-5.9,2.1-.2-.2-.3-.4-.5-.7,1.4-1.2,2.6-2.8,4.2-3.4,5-2,10.1-3.9,15.3-5.5,10-3.1,20-3.3,30.1-.4,12.9,3.7,20.3,16.1,16.7,28.5-.9,3.1-2.9,5.2-5.4,6.9-2.7,1.8-5.4,3.5-8.4,5.4,9.3,6.5,18.7,11.4,29.8,11.9,4.3.2,8.6.2,12.8-.4,7.5-1.2,12.1-6.3,15.3-12.9,1.2-2.5,2.2-5,3.5-7.4.3-.6,1.1-1,1.9-1.7.4-7.6,3.8-15.7-.1-24.3-.2,1-.3,1.6-.4,2.2-1.7,8.4-9.7,17.1-20.4,12.8-11.4-4.6-18.7-15.8-17.2-29.3.6-5.3,2.3-10.4,3.6-15.6.4-1.4.9-2.8,1.7-5.1-6.4-2.5-12.4-5.3-18.7-7h0ZM23.5,80.4c-3.9,10.1-.8,18.9,5,27.6-2.3,1.1-4.2,2-6.1,2.8-6,2.2-9.9,6.4-11.6,12.4-.6,2.1-.2,4.5.2,6.7.6,3.1,1.6,6.1,2.4,9.2.2.8.3,1.6.4,2.4-.3.1-.6.2-.9.3-1.6-3-3.1-6.1-4.7-9-2.1,8.6,8.3,23.7,17.2,25-1.5-2.5-3.3-4.9-4.6-7.5-2-4.2-1.6-8.5,1.5-12.1,1-1.2,2.7-1.9,4.1-2.8.3.3.6.6.9.8-.6,1.1-1.1,2.4-2,3.3-2.4,2.4-3.1,5.1-2,8.2,2.4,6.9,7.2,12.5,15,12.1,7.5-.4,13.6-5.8,15.1-13.1,1.3-6.4-.8-11.9-3.9-17.3-1.4-2.3-2.5-4.7-3.8-7,1-.2,1.8,0,2.2-.4,2.1-2,4.5-2,6.7-.7,1.8,1.1,3.8,2.3,4.7,4.1,3.8,7.3,13.4,7.5,19.7,3.5,4.7-3.1,7.2-7.3,6.9-13.1-.3-6.7-3.6-11.4-9.6-13.9-4.2-1.8-8.7-2.9-13-4.1-7.2-2.1-12.5-6.6-16.9-12.4-4-5.2-4.4-11.1-3.1-17.3.4-2.1.8-4.3,1.3-7-10,3.9-17.4,9.5-21.2,19.4h0ZM260.6,202.3c-2.8,5.5-7.9,7.4-13.3,8.4-12.3,2.2-23.2-1.6-33.4-8.4-3.7-2.5-7.5-5-11.4-7.1-2.4-1.2-5.1-1.9-7.7-2.4-2.4-.4-3.3.6-2.4,2.9,1.2,2.7,2.6,5.4,4.6,7.6,11.7,12.4,26.1,17.9,43.2,16.5,8.8-.7,17.3-2.3,24.6-7.6,5-3.6,8.3-8.1,8-14.6-.2-4.9-2.7-8.6-6.7-11.3-8-5.3-17.1-7.7-26.4-9.4-2.9-.5-5.9-1-8.8-1.6-5.9-1.3-11.2,1.4-16.7,2.8-5.9,1.4-11.6,3.6-17.2,5.8-3.3,1.3-4,2.6-4.6,5.5,10.2-.3,17.4,6.2,25.2,11.2,9.2,5.9,19,9.1,30,6.8,5.6-1.2,9.9-4.1,11.2-10.1,0-.4.4-.7.7-1.2,2.2,1.9,2.3,3.9,1.1,6.2h0ZM263.6,123.1c3.2,8.1,9.2,13.1,17.9,14.5,4.1.7,8.1-1.8,10.2-6,3.6-7.5,2.8-14.9-1.3-21.9-3.1-5.3-7.8-9.2-13.2-12.2-3.3-1.8-6.6-3.7-10.3-5.8-4.1,10.4-7.5,20.6-3.3,31.4h0ZM56.2,54.6c3-1.3,5.7-2.2,9.3-1.1,9.2,2.8,18.6,5.1,28,7.4,5.1,1.3,10.1.5,15.2-2.1-2.1-3.3-4.2-6.4-6.1-9.6-2.3-4.2-4.4-8.6-6.7-12.8-.6-1.1-1.6-2.3-2.7-2.7-7.6-2.3-15-.9-22.1,2.1-9.1,3.8-16,10.1-20.9,18.5-.2.3-.2.6-.4.9l.4,1c2-.5,4.1-.9,6-1.7ZM124.7,47.8c4.5-4,6.2-9.3,4.8-15.3-.7-2.9-2.4-4.9-5-6.4-5.1-3-10.3-4-15.9-2.3-3.6,1.1-6.7,3.1-8.8,6.4-.4.7-.4,2.3,0,2.7,6.3,5,7.4,12.3,9,19.4.4,1.8,1.2,3.6,2,6.1,5.1-3.8,9.8-6.9,13.8-10.5ZM165.6,186.4c-3.4-2.2-7.1-3.3-11.1-3.6-2.4-.2-4.9-.1-7.4,0-3.5.1-6.6,1.3-9.2,3.9-4.1,3.9-8.4,7.7-12.9,11.2-3.2,2.6-7.2,3.7-11.3,4-.6,0-1.1.3-1.9.5,11.7,6.3,43.2-3.1,53.7-15.9h0ZM264,60.2c2.5,4.8,3.7,10,3.9,15.3.1,3.5-.2,7-.5,10.5-.1,1.6-.1,2.8,1.6,3.6,3.9,1.9,7.9,3.8,11.6,6.2,3.6,2.4,6.9,5.4,10.5,8.3-3.9-17.9-12.1-33-27.1-44h0ZM104.8,49.2c.2-.1.5-.2.7-.4-.8-4.5-2.7-8.4-5.8-11.8-.3.1-.5.3-.8.4,1.9,3.9,3.9,7.8,5.8,11.8Z"/>
  </g>
</svg>